<svg width="15" height="14" viewBox="0 0 15 14" fill="none" xmlns="http://www.w3.org/2000/svg">
<path d="M2.59448 3.79157C2.59448 3.62139 2.66209 3.45818 2.78242 3.33784C2.90276 3.21751 3.06597 3.1499 3.23615 3.1499H3.87782C4.048 3.1499 4.21121 3.21751 4.33154 3.33784C4.45188 3.45818 4.51948 3.62139 4.51948 3.79157C4.51948 3.96175 4.45188 4.12496 4.33154 4.2453C4.21121 4.36563 4.048 4.43324 3.87782 4.43324H3.23615C3.06597 4.43324 2.90276 4.36563 2.78242 4.2453C2.66209 4.12496 2.59448 3.96175 2.59448 3.79157ZM5.80282 3.79157C5.80282 3.62139 5.87042 3.45818 5.99076 3.33784C6.11109 3.21751 6.2743 3.1499 6.44448 3.1499H12.2195C12.3897 3.1499 12.5529 3.21751 12.6732 3.33784C12.7935 3.45818 12.8611 3.62139 12.8611 3.79157C12.8611 3.96175 12.7935 4.12496 12.6732 4.2453C12.5529 4.36563 12.3897 4.43324 12.2195 4.43324H6.44448C6.2743 4.43324 6.11109 4.36563 5.99076 4.2453C5.87042 4.12496 5.80282 3.96175 5.80282 3.79157ZM2.59448 6.9999C2.59448 6.82972 2.66209 6.66651 2.78242 6.54618C2.90276 6.42584 3.06597 6.35824 3.23615 6.35824H3.87782C4.048 6.35824 4.21121 6.42584 4.33154 6.54618C4.45188 6.66651 4.51948 6.82972 4.51948 6.9999C4.51948 7.17008 4.45188 7.33329 4.33154 7.45363C4.21121 7.57396 4.048 7.64157 3.87782 7.64157H3.23615C3.06597 7.64157 2.90276 7.57396 2.78242 7.45363C2.66209 7.33329 2.59448 7.17008 2.59448 6.9999ZM5.80282 6.9999C5.80282 6.82972 5.87042 6.66651 5.99076 6.54618C6.11109 6.42584 6.2743 6.35824 6.44448 6.35824H12.2195C12.3897 6.35824 12.5529 6.42584 12.6732 6.54618C12.7935 6.66651 12.8611 6.82972 12.8611 6.9999C12.8611 7.17008 12.7935 7.33329 12.6732 7.45363C12.5529 7.57396 12.3897 7.64157 12.2195 7.64157H6.44448C6.2743 7.64157 6.11109 7.57396 5.99076 7.45363C5.87042 7.33329 5.80282 7.17008 5.80282 6.9999ZM2.59448 10.2082C2.59448 10.0381 2.66209 9.87484 2.78242 9.75451C2.90276 9.63417 3.06597 9.56657 3.23615 9.56657H3.87782C4.048 9.56657 4.21121 9.63417 4.33154 9.75451C4.45188 9.87484 4.51948 10.0381 4.51948 10.2082C4.51948 10.3784 4.45188 10.5416 4.33154 10.662C4.21121 10.7823 4.048 10.8499 3.87782 10.8499H3.23615C3.06597 10.8499 2.90276 10.7823 2.78242 10.662C2.66209 10.5416 2.59448 10.3784 2.59448 10.2082ZM5.80282 10.2082C5.80282 10.0381 5.87042 9.87484 5.99076 9.75451C6.11109 9.63417 6.2743 9.56657 6.44448 9.56657H12.2195C12.3897 9.56657 12.5529 9.63417 12.6732 9.75451C12.7935 9.87484 12.8611 10.0381 12.8611 10.2082C12.8611 10.3784 12.7935 10.5416 12.6732 10.662C12.5529 10.7823 12.3897 10.8499 12.2195 10.8499H6.44448C6.2743 10.8499 6.11109 10.7823 5.99076 10.662C5.87042 10.5416 5.80282 10.3784 5.80282 10.2082Z" fill="#838BA2"/>
</svg>
