<svg width="25" height="25" viewBox="0 0 25 25" fill="none" xmlns="http://www.w3.org/2000/svg">
<path d="M8.73605 4.2189L9.70535 3.9093C10.6125 3.6195 11.5827 4.0884 11.9715 5.0046L12.7455 6.8298C13.083 7.6245 12.8958 8.5596 12.2829 9.141L10.5792 10.7592C10.6842 11.7276 11.0094 12.6807 11.5548 13.6185C12.0735 14.5256 12.7684 15.3197 13.5987 15.954L15.6471 15.27C16.4229 15.0117 17.268 15.3096 17.7441 16.0089L18.8529 17.6379C19.4073 18.4515 19.3074 19.5729 18.6207 20.2623L17.8845 21.0012C17.1519 21.7365 16.1061 22.0038 15.1377 21.7014C12.8529 20.9886 10.752 18.8727 8.83505 15.3537C6.91565 11.8287 6.23825 8.8383 6.80285 6.3825C7.04045 5.3493 7.77665 4.5258 8.73785 4.2189" fill="white"/>
</svg>
