<svg width="16" height="21" viewBox="0 0 16 21" fill="none" xmlns="http://www.w3.org/2000/svg">
<path fill-rule="evenodd" clip-rule="evenodd" d="M8.9503 20.1331C9.54268 20.1332 10.1147 19.9169 10.5588 19.5249C11.003 19.1329 11.2886 18.5922 11.3621 18.0044L11.8238 14.3108C13.2182 13.5121 14.3097 12.2751 14.9285 10.7921C15.5473 9.30909 15.6587 7.66317 15.2455 6.11027C14.8323 4.55737 13.9175 3.18451 12.6435 2.20517C11.3695 1.22582 9.80759 0.694874 8.20065 0.694874C6.59371 0.694874 5.0318 1.22582 3.75777 2.20517C2.48375 3.18451 1.56901 4.55737 1.15579 6.11027C0.742574 7.66317 0.854029 9.30909 1.47283 10.7921C2.09163 12.2751 3.1831 13.5121 4.57752 14.3108L5.03922 18.0044C5.11267 18.5922 5.39832 19.1329 5.84245 19.5249C6.28658 19.9169 6.85861 20.1332 7.45099 20.1331H8.9503ZM8.9503 17.7031H7.45099L7.14724 15.2731H9.25405L8.9503 17.7031Z" fill="#CFD2DB"/>
</svg>
