<svg width="32" height="33" viewBox="0 0 32 33" fill="none" xmlns="http://www.w3.org/2000/svg">
<g filter="url(#filter0_d_160_5533)">
<path fill-rule="evenodd" clip-rule="evenodd" d="M16.2008 8.20803C16.4984 8.20799 16.7856 8.09874 17.008 7.90098C17.2304 7.70323 17.3725 7.43074 17.4073 7.13519L17.4158 6.99303V5.77803C17.4154 5.46836 17.2969 5.1705 17.0843 4.94531C16.8717 4.72013 16.5811 4.58462 16.272 4.56647C15.9628 4.54832 15.6584 4.6489 15.421 4.84767C15.1835 5.04643 15.0309 5.32837 14.9943 5.63588L14.9858 5.77803V6.99303C14.9858 7.31527 15.1138 7.62431 15.3416 7.85217C15.5695 8.08003 15.8785 8.20803 16.2008 8.20803ZM10.1865 10.6988C10.4143 10.4709 10.5423 10.162 10.5423 9.83978C10.5423 9.5176 10.4143 9.20862 10.1865 8.98077L9.32753 8.12177C9.21545 8.00573 9.08138 7.91316 8.93314 7.84949C8.78491 7.78581 8.62548 7.75229 8.46415 7.75089C8.30282 7.74949 8.14283 7.78023 7.99351 7.84132C7.84419 7.90241 7.70854 7.99263 7.59446 8.10671C7.48038 8.22079 7.39016 8.35645 7.32907 8.50577C7.26798 8.65508 7.23724 8.81507 7.23864 8.9764C7.24004 9.13773 7.27356 9.29716 7.33723 9.4454C7.40091 9.59363 7.49347 9.7277 7.60952 9.83978L8.46852 10.6988C8.69637 10.9266 9.00535 11.0545 9.32753 11.0545C9.6497 11.0545 9.95869 10.9266 10.1865 10.6988ZM23.933 10.6988L24.792 9.83978C25.0134 9.61063 25.1358 9.30372 25.1331 8.98515C25.1303 8.66658 25.0025 8.36184 24.7772 8.13657C24.552 7.9113 24.2472 7.78352 23.9287 7.78075C23.6101 7.77798 23.3032 7.90045 23.074 8.12177L22.215 8.98077C21.9937 9.20993 21.8712 9.51684 21.874 9.83541C21.8768 10.154 22.0046 10.4587 22.2298 10.684C22.4551 10.9093 22.7598 11.037 23.0784 11.0398C23.397 11.0426 23.7039 10.9201 23.933 10.6988ZM16.9504 28.863C17.5428 28.8632 18.1148 28.6469 18.559 28.2549C19.0031 27.8629 19.2888 27.3222 19.3622 26.7344L19.8239 23.0408C21.2183 22.2421 22.3098 21.0051 22.9286 19.5221C23.5474 18.0391 23.6589 16.3932 23.2456 14.8403C22.8324 13.2873 21.9177 11.9145 20.6437 10.9352C19.3696 9.9558 17.8077 9.42485 16.2008 9.42485C14.5938 9.42485 13.0319 9.9558 11.7579 10.9352C10.4839 11.9145 9.56915 13.2873 9.15593 14.8403C8.74271 16.3932 8.85416 18.0391 9.47296 19.5221C10.0918 21.0051 11.1832 22.2421 12.5777 23.0408L13.0394 26.7344C13.1128 27.3222 13.3985 27.8629 13.8426 28.2549C14.2867 28.6469 14.8587 28.8632 15.4511 28.863H16.9504ZM6.48078 17.928C6.80302 17.928 7.11206 17.8 7.33992 17.5722C7.56777 17.3443 7.69578 17.0353 7.69578 16.713C7.69578 16.3908 7.56777 16.0818 7.33992 15.8539C7.11206 15.626 6.80302 15.498 6.48078 15.498H5.26578C4.94354 15.498 4.6345 15.626 4.40665 15.8539C4.17879 16.0818 4.05078 16.3908 4.05078 16.713C4.05078 17.0353 4.17879 17.3443 4.40665 17.5722C4.6345 17.8 4.94354 17.928 5.26578 17.928H6.48078ZM27.1358 17.928C27.458 17.928 27.7671 17.8 27.9949 17.5722C28.2228 17.3443 28.3508 17.0353 28.3508 16.713C28.3508 16.3908 28.2228 16.0818 27.9949 15.8539C27.7671 15.626 27.458 15.498 27.1358 15.498H25.9208C25.5985 15.498 25.2895 15.626 25.0616 15.8539C24.8338 16.0818 24.7058 16.3908 24.7058 16.713C24.7058 17.0353 24.8338 17.3443 25.0616 17.5722C25.2895 17.8 25.5985 17.928 25.9208 17.928H27.1358ZM24.792 25.3031C25.0198 25.0752 25.1478 24.7663 25.1478 24.4441C25.1478 24.1219 25.0198 23.8129 24.792 23.5851L23.933 22.7261C23.821 22.61 23.6869 22.5175 23.5387 22.4538C23.3904 22.3901 23.231 22.3566 23.0697 22.3552C22.9083 22.3538 22.7483 22.3845 22.599 22.4456C22.4497 22.5067 22.3141 22.5969 22.2 22.711C22.0859 22.8251 21.9957 22.9607 21.9346 23.1101C21.8735 23.2594 21.8427 23.4194 21.8442 23.5807C21.8456 23.742 21.8791 23.9015 21.9427 24.0497C22.0064 24.1979 22.099 24.332 22.215 24.4441L23.074 25.3031C23.3019 25.5309 23.6109 25.6588 23.933 25.6588C24.2552 25.6588 24.5642 25.5309 24.792 25.3031ZM9.32753 25.3031L10.1865 24.4441C10.4024 24.2139 10.5202 23.9088 10.5151 23.5933C10.51 23.2777 10.3823 22.9766 10.1591 22.7535C9.93587 22.5305 9.63463 22.403 9.31912 22.3981C9.0036 22.3932 8.69855 22.5113 8.46852 22.7273L7.60952 23.5863C7.39367 23.8165 7.27584 24.1216 7.28096 24.4371C7.28608 24.7526 7.41376 25.0538 7.63697 25.2768C7.86018 25.4999 8.16141 25.6273 8.47693 25.6322C8.79245 25.6371 9.0975 25.5191 9.32753 25.3031ZM16.9504 26.433H15.4511L15.1474 24.003H17.2542L16.9504 26.433Z" fill="#F9A410"/>
</g>
<defs>
<filter id="filter0_d_160_5533" x="0.405782" y="0.919453" width="31.5898" height="31.5886" filterUnits="userSpaceOnUse" color-interpolation-filters="sRGB">
<feFlood flood-opacity="0" result="BackgroundImageFix"/>
<feColorMatrix in="SourceAlpha" type="matrix" values="0 0 0 0 0 0 0 0 0 0 0 0 0 0 0 0 0 0 127 0" result="hardAlpha"/>
<feOffset/>
<feGaussianBlur stdDeviation="1.8225"/>
<feComposite in2="hardAlpha" operator="out"/>
<feColorMatrix type="matrix" values="0 0 0 0 1 0 0 0 0 0.85 0 0 0 0 0 0 0 0 0.8 0"/>
<feBlend mode="normal" in2="BackgroundImageFix" result="effect1_dropShadow_160_5533"/>
<feBlend mode="normal" in="SourceGraphic" in2="effect1_dropShadow_160_5533" result="shape"/>
</filter>
</defs>
</svg>
