<svg width="25" height="25" viewBox="0 0 25 25" fill="none" xmlns="http://www.w3.org/2000/svg">
<path d="M8.40304 4.2189L9.37234 3.9093C10.2795 3.6195 11.2497 4.0884 11.6385 5.0046L12.4125 6.8298C12.75 7.6245 12.5628 8.5596 11.9499 9.141L10.2462 10.7592C10.3512 11.7276 10.6764 12.6807 11.2218 13.6185C11.7405 14.5256 12.4354 15.3197 13.2657 15.954L15.3141 15.27C16.0899 15.0117 16.935 15.3096 17.4111 16.0089L18.5199 17.6379C19.0743 18.4515 18.9744 19.5729 18.2877 20.2623L17.5515 21.0012C16.8189 21.7365 15.7731 22.0038 14.8047 21.7014C12.5199 20.9886 10.419 18.8727 8.50204 15.3537C6.58264 11.8287 5.90524 8.8383 6.46984 6.3825C6.70744 5.3493 7.44364 4.5258 8.40484 4.2189" fill="white"/>
</svg>
