<svg width="25" height="25" viewBox="0 0 25 25" fill="none" xmlns="http://www.w3.org/2000/svg">
<path d="M11.925 4.46422V3.76775C11.925 3.58304 11.9984 3.40589 12.129 3.27528C12.2596 3.14467 12.4367 3.07129 12.6214 3.07129C12.8062 3.07129 12.9833 3.14467 13.1139 3.27528C13.2445 3.40589 13.3179 3.58304 13.3179 3.76775V4.46422C13.3179 4.64893 13.2445 4.82608 13.1139 4.9567C12.9833 5.08731 12.8062 5.16069 12.6214 5.16069C12.4367 5.16069 12.2596 5.08731 12.129 4.9567C11.9984 4.82608 11.925 4.64893 11.925 4.46422ZM18.8896 7.25008C18.9811 7.25016 19.0717 7.2322 19.1563 7.19725C19.2408 7.16229 19.3177 7.11102 19.3824 7.04637L20.0788 6.3499C20.2095 6.21922 20.2829 6.04197 20.2829 5.85715C20.2829 5.67234 20.2095 5.49509 20.0788 5.3644C19.9482 5.23372 19.7709 5.1603 19.5861 5.1603C19.4013 5.1603 19.224 5.23372 19.0933 5.3644L18.3969 6.06087C18.2994 6.15827 18.2329 6.28242 18.206 6.41759C18.1791 6.55277 18.1929 6.69289 18.2457 6.82022C18.2984 6.94755 18.3878 7.05636 18.5024 7.13288C18.617 7.2094 18.7518 7.25019 18.8896 7.25008ZM5.8605 7.04637C5.99118 7.17705 6.16843 7.25047 6.35325 7.25047C6.53806 7.25047 6.71531 7.17705 6.846 7.04637C6.97668 6.91568 7.0501 6.73843 7.0501 6.55362C7.0501 6.3688 6.97668 6.19155 6.846 6.06087L6.14953 5.3644C6.01884 5.23372 5.8416 5.1603 5.65678 5.1603C5.47196 5.1603 5.29472 5.23372 5.16403 5.3644C5.03335 5.49509 4.95993 5.67234 4.95993 5.85715C4.95993 6.04197 5.03335 6.21922 5.16403 6.3499L5.8605 7.04637ZM21.6755 18.3935V20.4829C21.6755 20.8524 21.5287 21.2067 21.2675 21.4679C21.0063 21.7291 20.652 21.8759 20.2826 21.8759H4.96031C4.59089 21.8759 4.23659 21.7291 3.97536 21.4679C3.71414 21.2067 3.56738 20.8524 3.56738 20.4829V18.3935C3.56738 18.0241 3.71414 17.6698 3.97536 17.4086C4.23659 17.1474 4.59089 17.0006 4.96031 17.0006V14.2147C4.96029 13.2037 5.16036 12.2027 5.54901 11.2694C5.93766 10.3361 6.5072 9.48895 7.22479 8.77678C7.94238 8.06461 8.79383 7.50152 9.73007 7.11996C10.6663 6.7384 11.6688 6.54592 12.6798 6.55362C16.8716 6.58496 20.2826 10.0612 20.2826 14.3018V17.0006C20.652 17.0006 21.0063 17.1474 21.2675 17.4086C21.5287 17.6698 21.6755 18.0241 21.6755 18.3935ZM13.203 10.7228C14.8562 11.0006 16.1038 12.5014 16.1038 14.2147C16.1038 14.3995 16.1771 14.5766 16.3078 14.7072C16.4384 14.8378 16.6155 14.9112 16.8002 14.9112C16.9849 14.9112 17.1621 14.8378 17.2927 14.7072C17.4233 14.5766 17.4967 14.3995 17.4967 14.2147C17.4967 11.8293 15.7494 9.73734 13.4328 9.34906C13.3422 9.33304 13.2493 9.33512 13.1596 9.3552C13.0698 9.37528 12.9849 9.41294 12.9097 9.46603C12.8346 9.51911 12.7707 9.58655 12.7217 9.66447C12.6728 9.74238 12.6398 9.82922 12.6246 9.91996C12.6094 10.0107 12.6124 10.1036 12.6333 10.1932C12.6542 10.2827 12.6927 10.3673 12.7464 10.442C12.8002 10.5166 12.8682 10.5799 12.9466 10.6281C13.025 10.6763 13.1121 10.7085 13.203 10.7228ZM20.2826 20.4829V18.3935H4.96031V20.4829H20.2826Z" fill="white"/>
</svg>
