<svg width="12" height="13" viewBox="0 0 12 13" fill="none" xmlns="http://www.w3.org/2000/svg">
<path fill-rule="evenodd" clip-rule="evenodd" d="M10.7929 2.31383H6.99412V1.4187L0.75 2.38245V10.8301L6.99412 11.9056V10.5788H10.7929C10.908 10.5849 11.0208 10.545 11.1065 10.4679C11.1922 10.3908 11.2438 10.2829 11.25 10.1678V2.72445C11.2437 2.60943 11.192 2.5016 11.1063 2.42462C11.0206 2.34764 10.9079 2.3078 10.7929 2.31383ZM10.8529 10.2361H6.98138L6.975 9.5277H7.90763V8.7027H6.96787L6.96338 8.2152H7.90763V7.3902H6.95625L6.95175 6.9027H7.90763V6.0777H6.94875V5.5902H7.90763V4.7652H6.94875V4.2777H7.90763V3.4527H6.94875V2.7027H10.8529V10.2361Z" fill="#20744A"/>
<path d="M8.43262 3.45142H10.0537V4.27642H8.43262V3.45142ZM8.43262 4.76429H10.0537V5.58929H8.43262V4.76429ZM8.43262 6.07717H10.0537V6.90217H8.43262V6.07717ZM8.43262 7.39004H10.0537V8.21504H8.43262V7.39004ZM8.43262 8.70292H10.0537V9.52792H8.43262V8.70292Z" fill="#20744A"/>
<path fill-rule="evenodd" clip-rule="evenodd" d="M2.38052 4.66427L3.18527 4.61815L3.69115 6.00902L4.2889 4.56077L5.09365 4.51465L4.1164 6.4894L5.09365 8.46902L4.24277 8.41165L3.66827 6.90265L3.0934 8.35427L2.31152 8.28527L3.21977 6.53665L2.38052 4.66427Z" fill="white"/>
</svg>
