<svg width="28" height="28" viewBox="0 0 28 28" fill="none" xmlns="http://www.w3.org/2000/svg">
<path d="M6.99996 22.1667H10.5V16.3333C10.5 16.0028 10.612 15.7259 10.836 15.5027C11.06 15.2795 11.3368 15.1675 11.6666 15.1667H16.3333C16.6638 15.1667 16.9411 15.2787 17.1651 15.5027C17.3891 15.7267 17.5007 16.0036 17.5 16.3333V22.1667H21V11.6667L14 6.41668L6.99996 11.6667V22.1667ZM4.66663 22.1667V11.6667C4.66663 11.2972 4.74946 10.9472 4.91513 10.6167C5.08079 10.2861 5.30907 10.0139 5.59996 9.80001L12.6 4.55001C13.0083 4.2389 13.475 4.08334 14 4.08334C14.525 4.08334 14.9916 4.2389 15.4 4.55001L22.4 9.80001C22.6916 10.0139 22.9203 10.2861 23.086 10.6167C23.2516 10.9472 23.3341 11.2972 23.3333 11.6667V22.1667C23.3333 22.8083 23.1046 23.3578 22.6473 23.8152C22.19 24.2725 21.6408 24.5008 21 24.5H16.3333C16.0027 24.5 15.7258 24.388 15.5026 24.164C15.2794 23.94 15.1674 23.6631 15.1666 23.3333V17.5H12.8333V23.3333C12.8333 23.6639 12.7213 23.9412 12.4973 24.1652C12.2733 24.3892 11.9964 24.5008 11.6666 24.5H6.99996C6.35829 24.5 5.80918 24.2717 5.35263 23.8152C4.89607 23.3586 4.6674 22.8091 4.66663 22.1667Z" fill="black"/>
</svg>
