<svg width="25" height="25" viewBox="0 0 25 25" fill="none" xmlns="http://www.w3.org/2000/svg">
<path d="M6.5 19.8237H9.5V14.8237C9.5 14.5404 9.596 14.3031 9.788 14.1117C9.98 13.9204 10.2173 13.8244 10.5 13.8237H14.5C14.7833 13.8237 15.021 13.9197 15.213 14.1117C15.405 14.3037 15.5007 14.5411 15.5 14.8237V19.8237H18.5V10.8237L12.5 6.32373L6.5 10.8237V19.8237ZM4.5 19.8237V10.8237C4.5 10.5071 4.571 10.2071 4.713 9.92373C4.855 9.6404 5.05067 9.40706 5.3 9.22373L11.3 4.72373C11.65 4.45706 12.05 4.32373 12.5 4.32373C12.95 4.32373 13.35 4.45706 13.7 4.72373L19.7 9.22373C19.95 9.40706 20.146 9.6404 20.288 9.92373C20.43 10.2071 20.5007 10.5071 20.5 10.8237V19.8237C20.5 20.3737 20.304 20.8447 19.912 21.2367C19.52 21.6287 19.0493 21.8244 18.5 21.8237H14.5C14.2167 21.8237 13.9793 21.7277 13.788 21.5357C13.5967 21.3437 13.5007 21.1064 13.5 20.8237V15.8237H11.5V20.8237C11.5 21.1071 11.404 21.3447 11.212 21.5367C11.02 21.7287 10.7827 21.8244 10.5 21.8237H6.5C5.95 21.8237 5.47933 21.6281 5.088 21.2367C4.69667 20.8454 4.50067 20.3744 4.5 19.8237Z" fill="white"/>
</svg>
