<svg width="29" height="29" viewBox="0 0 29 29" fill="none" xmlns="http://www.w3.org/2000/svg">
<g clip-path="url(#clip0_272_1598)">
<g filter="url(#filter0_d_272_1598)">
<path fill-rule="evenodd" clip-rule="evenodd" d="M14.4004 22.9C14.6943 22.9001 14.978 23.008 15.1976 23.2033C15.4173 23.3986 15.5576 23.6677 15.592 23.9596L15.6004 24.1V25.3C15.6001 25.6059 15.4829 25.9001 15.273 26.1225C15.063 26.3449 14.776 26.4787 14.4707 26.4966C14.1654 26.5146 13.8647 26.4152 13.6302 26.2189C13.3956 26.0226 13.2449 25.7441 13.2088 25.4404L13.2004 25.3V24.1C13.2004 23.7818 13.3268 23.4765 13.5519 23.2515C13.7769 23.0265 14.0821 22.9 14.4004 22.9ZM8.46039 20.44C8.68536 20.6651 8.81173 20.9702 8.81173 21.2884C8.81173 21.6066 8.68536 21.9118 8.46039 22.1368L7.61199 22.9852C7.50129 23.0998 7.36888 23.1913 7.22248 23.2542C7.07607 23.317 6.91861 23.3501 6.75927 23.3515C6.59994 23.3529 6.44192 23.3226 6.29445 23.2622C6.14697 23.2019 6.01299 23.1128 5.90032 23.0001C5.78765 22.8874 5.69854 22.7535 5.6382 22.606C5.57787 22.4585 5.54751 22.3005 5.54889 22.1412C5.55028 21.9818 5.58338 21.8244 5.64627 21.6779C5.70916 21.5315 5.80058 21.3991 5.91519 21.2884L6.76359 20.44C6.98862 20.2151 7.29379 20.0887 7.61199 20.0887C7.93019 20.0887 8.23536 20.2151 8.46039 20.44ZM22.0372 20.44L22.8856 21.2884C23.1042 21.5148 23.2251 21.8179 23.2224 22.1325C23.2197 22.4471 23.0935 22.7481 22.871 22.9706C22.6485 23.1931 22.3475 23.3193 22.0329 23.322C21.7182 23.3248 21.4151 23.2038 21.1888 22.9852L20.3404 22.1368C20.1218 21.9105 20.0008 21.6074 20.0036 21.2927C20.0063 20.9781 20.1325 20.6771 20.355 20.4546C20.5775 20.2322 20.8785 20.106 21.1931 20.1032C21.5077 20.1005 21.8109 20.2214 22.0372 20.44ZM15.1408 2.50003C15.7259 2.4999 16.2908 2.7135 16.7295 3.10066C17.1681 3.48782 17.4502 4.02188 17.5228 4.60243L17.9788 8.25043C19.356 9.03922 20.434 10.261 21.0451 11.7257C21.6563 13.1904 21.7664 14.816 21.3583 16.3497C20.9502 17.8834 20.0467 19.2393 18.7884 20.2066C17.5301 21.1738 15.9875 21.6982 14.4004 21.6982C12.8133 21.6982 11.2707 21.1738 10.0124 20.2066C8.75407 19.2393 7.85063 17.8834 7.44251 16.3497C7.03439 14.816 7.14447 13.1904 7.75563 11.7257C8.36679 10.261 9.44478 9.03922 10.822 8.25043L11.278 4.60243C11.3505 4.02188 11.6327 3.48782 12.0713 3.10066C12.51 2.7135 13.0749 2.4999 13.66 2.50003H15.1408ZM4.80039 13.3C5.11865 13.3 5.42388 13.4265 5.64892 13.6515C5.87396 13.8765 6.00039 14.1818 6.00039 14.5C6.00039 14.8183 5.87396 15.1235 5.64892 15.3486C5.42388 15.5736 5.11865 15.7 4.80039 15.7H3.60039C3.28213 15.7 2.97691 15.5736 2.75186 15.3486C2.52682 15.1235 2.40039 14.8183 2.40039 14.5C2.40039 14.1818 2.52682 13.8765 2.75186 13.6515C2.97691 13.4265 3.28213 13.3 3.60039 13.3H4.80039ZM25.2004 13.3C25.5187 13.3 25.8239 13.4265 26.0489 13.6515C26.274 13.8765 26.4004 14.1818 26.4004 14.5C26.4004 14.8183 26.274 15.1235 26.0489 15.3486C25.8239 15.5736 25.5187 15.7 25.2004 15.7H24.0004C23.6821 15.7 23.3769 15.5736 23.1519 15.3486C22.9268 15.1235 22.8004 14.8183 22.8004 14.5C22.8004 14.1818 22.9268 13.8765 23.1519 13.6515C23.3769 13.4265 23.6821 13.3 24.0004 13.3H25.2004ZM22.8856 6.01603C23.1106 6.24106 23.2369 6.54623 23.2369 6.86443C23.2369 7.18263 23.1106 7.4878 22.8856 7.71283L22.0372 8.56123C21.9265 8.67584 21.7941 8.76726 21.6477 8.83015C21.5013 8.89304 21.3438 8.92615 21.1845 8.92753C21.0251 8.92892 20.8671 8.89855 20.7196 8.83822C20.5722 8.77788 20.4382 8.68878 20.3255 8.5761C20.2128 8.46343 20.1237 8.32945 20.0634 8.18198C20.0031 8.0345 19.9727 7.87648 19.9741 7.71715C19.9755 7.55781 20.0086 7.40035 20.0715 7.25395C20.1344 7.10754 20.2258 6.97513 20.3404 6.86443L21.1888 6.01603C21.4138 5.79107 21.719 5.66469 22.0372 5.66469C22.3554 5.66469 22.6606 5.79107 22.8856 6.01603ZM7.61199 6.01603L8.46039 6.86443C8.67358 7.09177 8.78995 7.39314 8.78489 7.70475C8.77983 8.01637 8.65373 8.3138 8.43328 8.5341C8.21282 8.7544 7.91531 8.88029 7.60368 8.88513C7.29206 8.88997 6.99078 8.77338 6.76359 8.56003L5.91519 7.71163C5.702 7.48429 5.58563 7.18293 5.59069 6.87131C5.59575 6.55969 5.72185 6.26226 5.9423 6.04196C6.16276 5.82166 6.46027 5.69577 6.7719 5.69093C7.08352 5.68609 7.3848 5.80268 7.61199 6.01603ZM15.1408 4.90003H13.66L13.36 7.30003H15.4408L15.1408 4.90003Z" fill="#F9A410"/>
</g>
</g>
<defs>
<filter id="filter0_d_272_1598" x="-2.59961" y="-2.49997" width="34" height="33.9987" filterUnits="userSpaceOnUse" color-interpolation-filters="sRGB">
<feFlood flood-opacity="0" result="BackgroundImageFix"/>
<feColorMatrix in="SourceAlpha" type="matrix" values="0 0 0 0 0 0 0 0 0 0 0 0 0 0 0 0 0 0 127 0" result="hardAlpha"/>
<feOffset/>
<feGaussianBlur stdDeviation="2.5"/>
<feComposite in2="hardAlpha" operator="out"/>
<feColorMatrix type="matrix" values="0 0 0 0 1 0 0 0 0 0.85 0 0 0 0 0 0 0 0 0.8 0"/>
<feBlend mode="normal" in2="BackgroundImageFix" result="effect1_dropShadow_272_1598"/>
<feBlend mode="normal" in="SourceGraphic" in2="effect1_dropShadow_272_1598" result="shape"/>
</filter>
<clipPath id="clip0_272_1598">
<rect width="28.8" height="28.8" fill="white" transform="translate(0 0.100006)"/>
</clipPath>
</defs>
</svg>
