<svg width="28" height="28" viewBox="0 0 28 28" fill="none" xmlns="http://www.w3.org/2000/svg">
<path d="M23.3334 25.6665V19.8332C23.3334 17.6328 23.3334 16.5338 22.6497 15.8502C21.9661 15.1665 20.8671 15.1665 18.6667 15.1665L14.0001 25.6665L9.33341 15.1665C7.13308 15.1665 6.03408 15.1665 5.35041 15.8502C4.66675 16.5338 4.66675 17.6328 4.66675 19.8332V25.6665" stroke="black" stroke-width="2" stroke-linecap="round" stroke-linejoin="round"/>
<path d="M14.0001 17.4999L13.4167 22.1666L14.0001 23.9166L14.5834 22.1666L14.0001 17.4999ZM14.0001 17.4999L12.8334 15.1666H15.1667L14.0001 17.4999ZM18.0834 7.58325V6.41659C18.0834 5.88035 17.9778 5.34937 17.7726 4.85396C17.5674 4.35855 17.2666 3.90841 16.8874 3.52923C16.5083 3.15006 16.0581 2.84928 15.5627 2.64408C15.0673 2.43887 14.5363 2.33325 14.0001 2.33325C13.4639 2.33325 12.9329 2.43887 12.4375 2.64408C11.942 2.84928 11.4919 3.15006 11.1127 3.52923C10.7336 3.90841 10.4328 4.35855 10.2276 4.85396C10.0224 5.34937 9.91675 5.88035 9.91675 6.41659V7.58325C9.91675 8.11948 10.0224 8.65046 10.2276 9.14588C10.4328 9.64129 10.7336 10.0914 11.1127 10.4706C11.4919 10.8498 11.942 11.1506 12.4375 11.3558C12.9329 11.561 13.4639 11.6666 14.0001 11.6666C14.5363 11.6666 15.0673 11.561 15.5627 11.3558C16.0581 11.1506 16.5083 10.8498 16.8874 10.4706C17.2666 10.0914 17.5674 9.64129 17.7726 9.14588C17.9778 8.65046 18.0834 8.11948 18.0834 7.58325Z" stroke="black" stroke-width="2" stroke-linecap="round" stroke-linejoin="round"/>
</svg>
