<svg width="28" height="28" viewBox="0 0 28 28" fill="none" xmlns="http://www.w3.org/2000/svg">
<path d="M14.0001 14.0001C12.7167 14.0001 11.6181 13.5431 10.7042 12.6292C9.79036 11.7154 9.33341 10.6167 9.33341 9.33341C9.33341 8.05008 9.79036 6.95147 10.7042 6.03758C11.6181 5.12369 12.7167 4.66675 14.0001 4.66675C15.2834 4.66675 16.382 5.12369 17.2959 6.03758C18.2098 6.95147 18.6667 8.05008 18.6667 9.33341C18.6667 10.6167 18.2098 11.7154 17.2959 12.6292C16.382 13.5431 15.2834 14.0001 14.0001 14.0001ZM4.66675 21.0001V20.0667C4.66675 19.4056 4.83708 18.7982 5.17775 18.2444C5.51841 17.6906 5.9703 17.2675 6.53341 16.9751C7.73897 16.3723 8.96397 15.9204 10.2084 15.6194C11.4529 15.3184 12.7167 15.1675 14.0001 15.1667C15.2834 15.166 16.5473 15.3169 17.7917 15.6194C19.0362 15.922 20.2612 16.3739 21.4667 16.9751C22.0306 17.2667 22.4829 17.6899 22.8236 18.2444C23.1642 18.799 23.3342 19.4064 23.3334 20.0667V21.0001C23.3334 21.6417 23.1051 22.1912 22.6486 22.6486C22.192 23.1059 21.6425 23.3342 21.0001 23.3334H7.00008C6.35841 23.3334 5.8093 23.1051 5.35275 22.6486C4.89619 22.192 4.66753 21.6425 4.66675 21.0001ZM7.00008 21.0001H21.0001V20.0667C21.0001 19.8529 20.9468 19.6584 20.8402 19.4834C20.7337 19.3084 20.5925 19.1723 20.4167 19.0751C19.3667 18.5501 18.307 18.1565 17.2376 17.8944C16.1681 17.6323 15.089 17.5009 14.0001 17.5001C12.9112 17.4993 11.832 17.6307 10.7626 17.8944C9.69314 18.1581 8.63341 18.5516 7.58341 19.0751C7.40841 19.1723 7.26725 19.3084 7.15991 19.4834C7.05258 19.6584 6.9993 19.8529 7.00008 20.0667V21.0001ZM14.0001 11.6667C14.6417 11.6667 15.1912 11.4385 15.6486 10.9819C16.1059 10.5254 16.3342 9.97586 16.3334 9.33341C16.3326 8.69097 16.1044 8.14186 15.6486 7.68608C15.1928 7.2303 14.6433 7.00164 14.0001 7.00008C13.3569 6.99853 12.8077 7.22719 12.3527 7.68608C11.8977 8.14497 11.6691 8.69408 11.6667 9.33341C11.6644 9.97275 11.8931 10.5222 12.3527 10.9819C12.8124 11.4416 13.3615 11.6699 14.0001 11.6667Z" fill="black"/>
</svg>
