<svg width="18" height="18" viewBox="0 0 18 18" fill="none" xmlns="http://www.w3.org/2000/svg">
<path d="M3.75 6.5H14.25C14.7615 6.5 15.1668 6.66781 15.5 7.00098C15.8331 7.3341 16.0004 7.73931 16 8.25V11.25C16 11.5288 15.9065 11.7551 15.7061 11.9561C15.506 12.1565 15.28 12.2503 15.001 12.25H13V14.25C13 14.5288 12.9065 14.7551 12.7061 14.9561C12.506 15.1565 12.28 15.2503 12.001 15.25H6C5.72109 15.25 5.49528 15.1564 5.29492 14.9561C5.11949 14.7806 5.02575 14.5853 5.00488 14.3516L5 14.249V12.25H3C2.72109 12.25 2.49528 12.1564 2.29492 11.9561C2.11949 11.7806 2.02575 11.5853 2.00488 11.3516L2 11.249V8.25C2 7.7409 2.16897 7.33693 2.50684 7.00391C2.80625 6.70894 3.15372 6.54446 3.56836 6.50781L3.75 6.5ZM5.5 14.75H12.5V10.75H5.5V14.75ZM3.75 7C3.41136 7 3.10424 7.12057 2.8623 7.36328C2.62135 7.60507 2.5008 7.91142 2.5 8.24902V11.75H5V11.25C5 10.9714 5.09328 10.7453 5.29395 10.5449C5.47003 10.3691 5.6658 10.2758 5.89844 10.2549L6.00098 10.25H12C12.2787 10.25 12.505 10.3439 12.7061 10.5449C12.9069 10.7459 13.0003 10.9714 13 11.249L12.999 11.75H15.5V8.25C15.5 7.91136 15.3794 7.60424 15.1367 7.3623C14.8949 7.12135 14.5886 7.0008 14.251 7H3.75ZM13.5 8.375C13.5863 8.375 13.6346 8.39913 13.6797 8.44434C13.7256 8.49047 13.7498 8.53979 13.75 8.62598C13.7502 8.71098 13.7273 8.75997 13.6816 8.80566C13.6359 8.85145 13.5863 8.875 13.5 8.875H13.498C13.4148 8.87539 13.3658 8.85309 13.3193 8.80664C13.2728 8.76006 13.2498 8.71052 13.25 8.62598C13.2502 8.53979 13.2744 8.49047 13.3203 8.44434C13.3654 8.39913 13.4137 8.375 13.5 8.375ZM12 2.75C12.2787 2.75 12.505 2.84385 12.7061 3.04492C12.9069 3.24586 13.0003 3.47143 13 3.74902V5.5H12.5V3.25H5.5V5.5H5V3.75C5 3.4714 5.09328 3.24533 5.29395 3.04492C5.47003 2.86914 5.6658 2.77579 5.89844 2.75488L6.00098 2.75H12Z" fill="black" stroke="white"/>
</svg>
