<svg width="18" height="18" viewBox="0 0 18 18" fill="none" xmlns="http://www.w3.org/2000/svg">
<path d="M15.7506 15.7502L12.4934 12.4929M12.4934 12.4929C13.0506 11.9357 13.4925 11.2743 13.7941 10.5463C14.0956 9.81834 14.2508 9.03811 14.2508 8.25015C14.2508 7.4622 14.0956 6.68197 13.7941 5.95399C13.4925 5.22602 13.0506 4.56457 12.4934 4.0074C11.9362 3.45024 11.2748 3.00827 10.5468 2.70673C9.81883 2.4052 9.03859 2.25 8.25064 2.25C7.46269 2.25 6.68246 2.4052 5.95448 2.70673C5.22651 3.00827 4.56506 3.45024 4.00789 4.0074C2.88265 5.13265 2.25049 6.65881 2.25049 8.25015C2.25049 9.84149 2.88265 11.3677 4.00789 12.4929C5.13314 13.6182 6.6593 14.2503 8.25064 14.2503C9.84198 14.2503 11.3681 13.6182 12.4934 12.4929Z" stroke="white" stroke-width="1.5" stroke-linecap="round" stroke-linejoin="round"/>
</svg>
