<svg width="16" height="17" viewBox="0 0 16 17" fill="none" xmlns="http://www.w3.org/2000/svg">
<path d="M13.5804 14.2601L10.8009 11.4806M10.8009 11.4806C11.2764 11.0052 11.6535 10.4407 11.9108 9.81951C12.1681 9.19831 12.3006 8.53251 12.3006 7.86012C12.3006 7.18774 12.1681 6.52194 11.9108 5.90073C11.6535 5.27953 11.2764 4.71509 10.8009 4.23964C10.3255 3.76419 9.76103 3.38705 9.13982 3.12974C8.51862 2.87243 7.85282 2.73999 7.18043 2.73999C6.50805 2.73999 5.84225 2.87243 5.22104 3.12974C4.59984 3.38705 4.0354 3.76419 3.55995 4.23964C2.59974 5.19985 2.0603 6.50218 2.0603 7.86012C2.0603 9.21807 2.59974 10.5204 3.55995 11.4806C4.52017 12.4408 5.82249 12.9803 7.18043 12.9803C8.53838 12.9803 9.8407 12.4408 10.8009 11.4806Z" stroke="#838BA2" stroke-width="1.28" stroke-linecap="round" stroke-linejoin="round"/>
</svg>
