<svg width="28" height="28" viewBox="0 0 28 28" fill="none" xmlns="http://www.w3.org/2000/svg">
<path fill-rule="evenodd" clip-rule="evenodd" d="M14.6568 3.7335H13.3431L12.5906 6.74116L11.8358 6.9745C11.3959 7.11003 10.9697 7.28659 10.5629 7.50183L9.86408 7.87166L7.20409 6.27566L6.27542 7.2055L7.87142 9.8655L7.50158 10.5632C7.28594 10.97 7.109 11.3961 6.97309 11.836L6.74092 12.5908L3.73325 13.3433V14.657L6.74092 15.4095L6.97425 16.1643C7.10881 16.6061 7.28458 17.0304 7.50158 17.4372L7.87142 18.136L6.27542 20.796L7.20525 21.7247L9.86525 20.1287L10.5629 20.4985C10.9697 20.7147 11.394 20.8909 11.8358 21.027L12.5906 21.2592L13.3431 24.2668H14.6568L15.4093 21.2592L16.1641 21.0258C16.6039 20.8903 17.0301 20.7137 17.4369 20.4985L18.1358 20.1287L20.7958 21.7247L21.7244 20.7948L20.1284 18.1348L20.4983 17.4372C20.7145 17.0304 20.8906 16.6061 21.0268 16.1643L21.2589 15.4095L24.2666 14.657V13.3433L21.2589 12.5908L21.0256 11.836C20.89 11.3961 20.7135 10.97 20.4983 10.5632L20.1284 9.86433L21.7244 7.20433L20.7946 6.27566L18.1346 7.87166L17.4369 7.50183C17.0301 7.28619 16.604 7.10924 16.1641 6.97333L15.4093 6.74116L14.6568 3.7335ZM18.0926 6.26516L20.2311 4.98183C20.4541 4.84808 20.7153 4.79267 20.9734 4.82437C21.2315 4.85608 21.4716 4.97309 21.6556 5.15683L22.8433 6.3445C23.027 6.52848 23.144 6.76857 23.1757 7.02665C23.2074 7.28473 23.152 7.54601 23.0183 7.769L21.7349 9.9075C21.9916 10.3897 22.2016 10.8953 22.3649 11.4242L24.7834 12.0297C25.0357 12.0929 25.2596 12.2386 25.4197 12.4436C25.5797 12.6486 25.6666 12.9012 25.6666 13.1613V14.839C25.6666 15.0991 25.5797 15.3517 25.4197 15.5567C25.2596 15.7618 25.0357 15.9075 24.7834 15.9707L22.3649 16.5762C22.2016 17.1051 21.9916 17.6106 21.7349 18.0928L23.0183 20.2313C23.152 20.4543 23.2074 20.7156 23.1757 20.9737C23.144 21.2318 23.027 21.4718 22.8433 21.6558L21.6556 22.8435C21.4716 23.0272 21.2315 23.1442 20.9734 23.176C20.7153 23.2077 20.4541 23.1522 20.2311 23.0185L18.0926 21.7352C17.6104 21.9918 17.1048 22.2018 16.5759 22.3652L15.9704 24.7837C15.9072 25.0359 15.7615 25.2599 15.5565 25.4199C15.3515 25.5799 15.0988 25.6668 14.8388 25.6668H13.1611C12.901 25.6668 12.6484 25.5799 12.4433 25.4199C12.2383 25.2599 12.0926 25.0359 12.0294 24.7837L11.4239 22.3652C10.8997 22.2032 10.3919 21.9922 9.90725 21.7352L7.76875 23.0185C7.54576 23.1522 7.28449 23.2077 7.02641 23.176C6.76833 23.1442 6.52824 23.0272 6.34425 22.8435L5.15659 21.6558C4.97284 21.4718 4.85583 21.2318 4.82413 20.9737C4.79242 20.7156 4.84784 20.4543 4.98159 20.2313L6.26492 18.0928C6.00783 17.6081 5.7969 17.1004 5.63492 16.5762L3.21642 15.9707C2.96432 15.9075 2.74053 15.762 2.58054 15.5572C2.42055 15.3524 2.33352 15.1 2.33325 14.8402V13.1625C2.33326 12.9024 2.42017 12.6498 2.58018 12.4448C2.7402 12.2397 2.96413 12.094 3.21642 12.0308L5.63492 11.4253C5.79825 10.8964 6.00825 10.3909 6.26492 9.90866L4.98159 7.77016C4.84784 7.54718 4.79242 7.2859 4.82413 7.02782C4.85583 6.76974 4.97284 6.52965 5.15659 6.34566L6.34425 5.15683C6.52824 4.97309 6.76833 4.85608 7.02641 4.82437C7.28449 4.79267 7.54576 4.84808 7.76875 4.98183L9.90725 6.26516C10.3895 6.0085 10.895 5.7985 11.4239 5.63516L12.0294 3.21666C12.0926 2.96457 12.2381 2.74078 12.4429 2.58079C12.6477 2.42079 12.9 2.33376 13.1599 2.3335H14.8376C15.0977 2.3335 15.3503 2.42042 15.5553 2.58043C15.7604 2.74044 15.9061 2.96438 15.9693 3.21666L16.5748 5.63516C17.1036 5.7985 17.6092 6.0085 18.0914 6.26516H18.0926ZM13.9999 17.2668C14.8663 17.2668 15.6972 16.9227 16.3098 16.31C16.9224 15.6974 17.2666 14.8665 17.2666 14.0002C17.2666 13.1338 16.9224 12.3029 16.3098 11.6903C15.6972 11.0777 14.8663 10.7335 13.9999 10.7335C13.1335 10.7335 12.3027 11.0777 11.69 11.6903C11.0774 12.3029 10.7333 13.1338 10.7333 14.0002C10.7333 14.8665 11.0774 15.6974 11.69 16.31C12.3027 16.9227 13.1335 17.2668 13.9999 17.2668ZM13.9999 18.6668C12.7622 18.6668 11.5753 18.1752 10.7001 17.3C9.82492 16.4248 9.33325 15.2378 9.33325 14.0002C9.33325 12.7625 9.82492 11.5755 10.7001 10.7003C11.5753 9.82516 12.7622 9.3335 13.9999 9.3335C15.2376 9.3335 16.4246 9.82516 17.2997 10.7003C18.1749 11.5755 18.6666 12.7625 18.6666 14.0002C18.6666 15.2378 18.1749 16.4248 17.2997 17.3C16.4246 18.1752 15.2376 18.6668 13.9999 18.6668Z" fill="black"/>
</svg>
