<svg width="25" height="25" viewBox="0 0 25 25" fill="none" xmlns="http://www.w3.org/2000/svg">
<path d="M12.259 4.46422V3.76775C12.259 3.58304 12.3323 3.40589 12.4629 3.27528C12.5936 3.14467 12.7707 3.07129 12.9554 3.07129C13.1401 3.07129 13.3173 3.14467 13.4479 3.27528C13.5785 3.40589 13.6519 3.58304 13.6519 3.76775V4.46422C13.6519 4.64893 13.5785 4.82608 13.4479 4.9567C13.3173 5.08731 13.1401 5.16069 12.9554 5.16069C12.7707 5.16069 12.5936 5.08731 12.4629 4.9567C12.3323 4.82608 12.259 4.64893 12.259 4.46422ZM19.2236 7.25008C19.3151 7.25016 19.4057 7.2322 19.4903 7.19725C19.5748 7.16229 19.6516 7.11102 19.7164 7.04637L20.4128 6.3499C20.5435 6.21922 20.6169 6.04197 20.6169 5.85715C20.6169 5.67234 20.5435 5.49509 20.4128 5.3644C20.2821 5.23372 20.1049 5.1603 19.9201 5.1603C19.7353 5.1603 19.558 5.23372 19.4273 5.3644L18.7309 6.06087C18.6334 6.15827 18.5669 6.28242 18.54 6.41759C18.5131 6.55277 18.5269 6.69289 18.5796 6.82022C18.6324 6.94755 18.7218 7.05636 18.8364 7.13288C18.951 7.2094 19.0858 7.25019 19.2236 7.25008ZM6.19448 7.04637C6.32517 7.17705 6.50241 7.25047 6.68723 7.25047C6.87205 7.25047 7.04929 7.17705 7.17998 7.04637C7.31067 6.91568 7.38408 6.73843 7.38408 6.55362C7.38408 6.3688 7.31067 6.19155 7.17998 6.06087L6.48351 5.3644C6.35283 5.23372 6.17558 5.1603 5.99076 5.1603C5.80595 5.1603 5.6287 5.23372 5.49802 5.3644C5.36733 5.49509 5.29391 5.67234 5.29391 5.85715C5.29391 6.04197 5.36733 6.21922 5.49802 6.3499L6.19448 7.04637ZM22.0095 18.3935V20.4829C22.0095 20.8524 21.8627 21.2067 21.6015 21.4679C21.3403 21.7291 20.986 21.8759 20.6165 21.8759H5.2943C4.92487 21.8759 4.57057 21.7291 4.30935 21.4679C4.04812 21.2067 3.90137 20.8524 3.90137 20.4829V18.3935C3.90137 18.0241 4.04812 17.6698 4.30935 17.4086C4.57057 17.1474 4.92487 17.0006 5.2943 17.0006V14.2147C5.29427 13.2037 5.49435 12.2027 5.883 11.2694C6.27165 10.3361 6.84118 9.48895 7.55877 8.77678C8.27636 8.06461 9.12782 7.50152 10.0641 7.11996C11.0003 6.7384 12.0028 6.54592 13.0138 6.55362C17.2056 6.58496 20.6165 10.0612 20.6165 14.3018V17.0006C20.986 17.0006 21.3403 17.1474 21.6015 17.4086C21.8627 17.6698 22.0095 18.0241 22.0095 18.3935ZM13.537 10.7228C15.1902 11.0006 16.4378 12.5014 16.4378 14.2147C16.4378 14.3995 16.5111 14.5766 16.6417 14.7072C16.7724 14.8378 16.9495 14.9112 17.1342 14.9112C17.3189 14.9112 17.4961 14.8378 17.6267 14.7072C17.7573 14.5766 17.8307 14.3995 17.8307 14.2147C17.8307 11.8293 16.0834 9.73734 13.7668 9.34906C13.6762 9.33304 13.5833 9.33512 13.4935 9.3552C13.4038 9.37528 13.3188 9.41294 13.2437 9.46603C13.1685 9.51911 13.1047 9.58655 13.0557 9.66447C13.0068 9.74238 12.9738 9.82922 12.9586 9.91996C12.9434 10.0107 12.9464 10.1036 12.9673 10.1932C12.9882 10.2827 13.0266 10.3673 13.0804 10.442C13.1342 10.5166 13.2022 10.5799 13.2806 10.6281C13.359 10.6763 13.4461 10.7085 13.537 10.7228ZM20.6165 20.4829V18.3935H5.2943V20.4829H20.6165Z" fill="white"/>
</svg>
